<?xml version="1.0" encoding="UTF-8" standalone="no"?>
<svg
   xmlns:dc="http://purl.org/dc/elements/1.1/"
   xmlns:cc="http://creativecommons.org/ns#"
   xmlns:rdf="http://www.w3.org/1999/02/22-rdf-syntax-ns#"
   xmlns:svg="http://www.w3.org/2000/svg"
   xmlns="http://www.w3.org/2000/svg"
   id="svg16"
   version="1.1"
   viewBox="0 0 48.72 48.72">
  <metadata
     id="metadata20">
    <rdf:RDF>
      <cc:Work
         rdf:about="">
        <dc:format>image/svg+xml</dc:format>
        <dc:type
           rdf:resource="http://purl.org/dc/dcmitype/StillImage" />
        <dc:title>protonvpn-sign-green</dc:title>
      </cc:Work>
    </rdf:RDF>
  </metadata>
  <defs
     id="defs4">
    <style
       id="style2">.cls-1{opacity:0;}.cls-2{fill:#fff;}.cls-3{fill:#56b366;fill-rule:evenodd;}</style>
  </defs>
  <title
     id="title6">protonvpn-sign-green</title>
  <g
     transform="matrix(1.8135593,0,0,1.8135593,-19.818306,-19.818306)"
     data-name="Ebene 2"
     id="Ebene_2">
    <g
       data-name="Ebene 1"
       id="Ebene_1-2">
      <g
         style="opacity:0"
         id="g10"
         class="cls-1">
        <rect
           style="fill:#ffffff"
           y="0"
           x="0"
           id="rect8"
           height="48.720001"
           width="48.720001"
           class="cls-2" />
      </g>
      <path
         style="fill:#56b366;fill-rule:evenodd"
         id="path12"
         d="m 33.61,16.59 a 2.26,2.26 0 0 0 -4.52,0 c 0,0 0,0 0,0.07 l -9.85,3.18 a 2.26,2.26 0 1 0 -1.87,3.53 2.23,2.23 0 0 0 0.69,-0.12 l 6.47,8.17 a 2.26,2.26 0 1 0 3.55,-0.83 l 3.44,-11.75 a 2.25,2.25 0 0 0 2.09,-2.25 z M 26.62,30 a 2.24,2.24 0 0 0 -1,0.25 l -6.32,-8 a 2.24,2.24 0 0 0 0.32,-0.94 L 29.68,18.1 a 2.26,2.26 0 0 0 0.35,0.32 L 26.63,30 Z"
         class="cls-3" />
    </g>
  </g>
</svg>
